<svg width="64" height="64" viewBox="0 0 64 64" fill="none" xmlns="http://www.w3.org/2000/svg">
<g clip-path="url(#clip0_1395_701)">
<path d="M32 0.700195C49.2865 0.700195 63.2998 14.7135 63.2998 32C63.2998 49.2865 49.2865 63.2998 32 63.2998C14.7135 63.2998 0.700195 49.2865 0.700195 32C0.700195 14.7135 14.7135 0.700195 32 0.700195Z" stroke="#0A0D12" stroke-width="1.4" stroke-linecap="round" stroke-linejoin="round"/>
<path d="M-3.0625 24.125L13.8125 20.5411C13.8125 20.5411 17.3411 19.8113 19.545 19.1451C21.8285 18.455 25.7368 16.8755 25.7368 16.8755C25.7368 16.8755 26.2755 17.8197 26.8152 18.2794C27.2862 18.6806 28.1437 19.0895 28.1437 19.0895C28.1437 19.0895 25.9941 18.4472 25.2775 15.6552C24.5609 12.8633 23.8444 7.97753 25.2775 7.27948C26.1048 6.8765 29.5769 10.7137 30.2934 12.1653C33.1597 11.4117 38.7121 13.4444 41.0419 14.9572C43.3716 16.4701 44.5494 19.1717 46.0578 21.9371C47.5662 24.7025 47.1304 25.1461 48.924 28.9169C50.7177 32.6878 58.5464 37.9907 56.0897 40.7827C53.6329 43.5746 51.697 46.5078 45.2486 43.3672C40.5827 41.0947 34.5928 42.123 28.8603 35.8968C28.8603 35.8968 30.4835 37.5744 31.7265 38.3963C32.8323 39.1273 34.5908 40.0826 34.5908 40.0826L27.4272 44.9706L16.0625 62.375" stroke="#0A0D12" stroke-width="1.4"/>
</g>
<defs>
<clipPath id="clip0_1395_701">
<path d="M0 32C0 14.3269 14.3269 0 32 0C49.6731 0 64 14.3269 64 32C64 49.6731 49.6731 64 32 64C14.3269 64 0 49.6731 0 32Z" fill="white"/>
</clipPath>
</defs>
</svg>
