<svg width="64" height="64" viewBox="0 0 64 64" fill="none" xmlns="http://www.w3.org/2000/svg">
<g clip-path="url(#clip0_1395_729)">
<path d="M32 0.700195C49.2865 0.700195 63.2998 14.7135 63.2998 32C63.2998 49.2865 49.2865 63.2998 32 63.2998C14.7135 63.2998 0.700195 49.2865 0.700195 32C0.700195 14.7135 14.7135 0.700195 32 0.700195Z" stroke="#0A0D12" stroke-width="1.4" stroke-linecap="round" stroke-linejoin="round"/>
<path d="M2.5 42C2.5 41.2586 3.04471 40.311 4.33337 39.6667C5.62203 39.0223 4.37624 36.9447 5.50004 36.1667C6.62384 35.3887 7.83337 36.1667 9.00004 35C10.1144 33.8857 8.59962 32.851 10.1667 31.5C10.6287 31.1017 13.3164 31.6134 13.8259 31.0937C14.3848 30.5235 13.4182 28.9683 13.8259 28.5524C14.2336 28.1366 15.9625 27.9624 16.4076 27.4334C17.0155 26.7112 15.8975 25.9612 16.4076 25.1641C16.745 24.637 18.4077 24.7955 18.8088 24.3171C19.5979 23.3758 18.8741 22.5563 19.6393 21.7758C20.4698 20.9288 21.394 21.6802 22.1307 20.9288C22.9612 20.0817 22.2225 19.0982 23.1717 18.2934C23.8843 17.6894 24.6532 18.0611 25.4264 17.5405C26.1565 17.0489 26.1838 16.3128 26.9296 15.8463C28.0622 15.1379 29.1757 16.1727 30.3116 15.4699C30.9272 15.089 30.9862 14.4872 31.6269 14.1522C32.8092 13.5339 33.7681 14.9993 34.588 14.9992C35.5087 14.9992 36.2576 14.0967 37.0757 14.1522C38.2838 14.2341 38.7291 15.1337 39.8941 15.4699C40.7527 15.7175 41.5535 15.1685 42.1488 15.8463C42.8928 16.6934 42.569 16.6934 42.8928 17.5405C43.14 18.1871 44 18.2934 44.9672 19.0825C46.1752 20.0679 44.6627 21.998 45.3843 23.47C46.1059 24.942 47.856 26.6701 48.7062 27.7054C49.5563 28.7407 51.1977 31.1878 52.0282 32.7878C52.8587 34.3879 53.3626 35.3794 52.8587 36.9291C52.6021 37.7181 49.2172 40.2594 47.8757 40.2594C46.5342 40.2594 45.2888 39.6482 43.7233 39.4123C42.1578 39.1764 39.5709 39.5645 39.5709 39.5645C39.5709 39.5645 37.7402 39.9584 37.0794 41.2586C36.5656 42.2697 37.9099 42.9528 37.0794 44.6469C36.5542 45.7184 34.9749 45.494 34.588 46.3411C34.167 47.2627 35.1718 48.0884 34.588 48.8823C34.1528 49.474 32.927 49.7293 32.927 50.5764C32.927 51.002 33.1085 51.9963 33.054 52.646C33.0266 52.9729 32.8086 53.2331 32.5736 53.4621L31.8445 54.1728C31.4111 54.5951 31.1667 55.1746 31.1667 55.7798V56.1702C31.1667 56.7809 30.8217 57.3392 30.2755 57.6123L30 57.75C29.3557 58.0722 29.0945 58.8557 29.4167 59.5C29.7389 60.1443 29.4777 60.9278 28.8334 61.25L27.9472 61.6931C27.7611 61.7862 27.5885 61.9041 27.4341 62.0437L26.9296 62.5" stroke="#0A0D12" stroke-width="1.4"/>
</g>
<defs>
<clipPath id="clip0_1395_729">
<path d="M0 32C0 14.3269 14.3269 0 32 0C49.6731 0 64 14.3269 64 32C64 49.6731 49.6731 64 32 64C14.3269 64 0 49.6731 0 32Z" fill="white"/>
</clipPath>
</defs>
</svg>
