<svg width="74" height="32" viewBox="0 0 74 32" fill="none" xmlns="http://www.w3.org/2000/svg">
<path d="M57.8193 11.7568C59.201 11.7569 60.3314 12.1206 61.1719 12.8447C61.5795 13.2038 61.91 13.641 62.1436 14.1299C62.3771 14.6189 62.5091 15.1506 62.5312 15.6914L60.2451 15.8906H60.1846V15.8457C60.1552 15.2792 59.9051 14.7461 59.4873 14.3594C58.9527 13.9494 58.2788 13.7609 57.6074 13.834C56.936 13.9071 56.3192 14.2366 55.8867 14.752C55.4347 15.3781 55.2051 16.3425 55.2051 17.541C55.2051 18.7394 55.4342 19.6566 55.8799 20.2891C56.0973 20.5972 56.3904 20.8459 56.7305 21.0117C57.0704 21.1775 57.4469 21.2548 57.8252 21.2373C58.4275 21.2636 59.0174 21.0588 59.4717 20.665C59.9171 20.22 60.1909 19.6331 60.2451 19.0078V18.9668L62.5566 19.1758C62.4816 20.3394 61.9565 21.4292 61.0918 22.2178C60.2163 22.9862 59.0384 23.376 57.5898 23.376C56.9133 23.4003 56.2401 23.2696 55.6221 22.9951C55.0039 22.7205 54.4572 22.3083 54.0244 21.791C53.1553 20.7601 52.7159 19.3847 52.7158 17.5791C52.7158 15.7734 53.1713 14.3405 54.0723 13.3096C54.9732 12.2788 56.2276 11.7568 57.8193 11.7568ZM35.7275 11.7822C37.2715 11.7822 38.5097 12.3008 39.3916 13.2842C40.2735 14.2677 40.7227 15.6562 40.7227 17.3955C40.7227 17.5473 40.7134 17.794 40.6943 18.126V18.2432H33.1104C33.0844 19.0523 33.3435 19.8455 33.8428 20.4854C34.0932 20.7539 34.4005 20.9644 34.7422 21.1016C35.0837 21.2386 35.4516 21.2995 35.8193 21.2793C36.3751 21.2983 36.9227 21.136 37.377 20.8174C37.7934 20.505 38.0858 20.0566 38.2041 19.5518V19.5176L40.5127 19.9219C40.2749 20.883 39.7132 21.7347 38.9209 22.335C37.9947 23.0354 36.8561 23.4019 35.6924 23.375C34.126 23.375 32.8458 22.8534 31.9512 21.8193C31.0568 20.7853 30.6016 19.3305 30.6016 17.5439C30.6016 15.7575 31.0663 14.3407 31.9639 13.3193C32.8617 12.2979 34.1357 11.7822 35.7275 11.7822ZM68.4238 11.7764C69.9679 11.7764 71.1999 12.2948 72.085 13.2783C72.9699 14.2617 73.4189 15.6496 73.4189 17.3887C73.4189 17.5405 73.41 17.7881 73.3877 18.1201V18.2363H65.8105C65.7845 19.0454 66.0428 19.8386 66.542 20.4785C66.7924 20.747 67.0998 20.9575 67.4414 21.0947C67.7831 21.2319 68.1515 21.2928 68.5195 21.2725C69.0669 21.2885 69.6049 21.129 70.0537 20.8174C70.469 20.5045 70.7614 20.0562 70.8789 19.5518V19.5176L73.1865 19.9219C72.9464 20.8821 72.3852 21.733 71.5947 22.335C70.6686 23.0354 69.5299 23.4029 68.3662 23.376C66.8002 23.3759 65.5461 22.8473 64.6484 21.8135C63.7507 20.7794 63.2979 19.3247 63.2979 17.5381C63.2979 15.7514 63.7563 14.3339 64.6572 13.3125C65.5582 12.2911 66.8321 11.7764 68.4238 11.7764ZM18.793 11.7725C20.4644 11.7725 21.8115 12.2947 22.7666 13.3193C23.7216 14.3439 24.1962 15.773 24.1963 17.5723C24.1963 19.3717 23.7217 20.8047 22.7666 21.8262C21.8115 22.8475 20.4902 23.375 18.8125 23.375C17.1347 23.375 15.8003 22.8474 14.8516 21.8291C13.9029 20.8108 13.4258 19.3747 13.4258 17.5723C13.4258 15.7698 13.9031 14.3339 14.8486 13.3125C15.7941 12.2912 17.1186 11.7725 18.793 11.7725ZM9.52832 18.4043V8.18066H12.0156V23.0146H10.0283L2.46387 12.791V23.0146H0V8.18066H2.00586L9.52832 18.4043ZM28.9648 8C29.411 8.01407 29.8565 8.05073 30.2988 8.11035L30.7197 8.18652L31.165 8.26855L30.7256 10.0938L30.1846 10.0146C30.0604 10.002 29.6243 9.97656 29.5479 9.97656C29.4006 9.96007 29.2515 9.97289 29.1094 10.0146C28.9672 10.0565 28.8343 10.1262 28.7197 10.2197C28.5358 10.526 28.4578 10.8838 28.4971 11.2383V12.1201H30.4072V13.9199H28.4971V23.0146H26.125V13.9199H24.4541V12.1045H26.125V10.8398C26.125 9.89113 26.3611 9.17311 26.8291 8.70508C27.297 8.23719 28.01 8.00007 28.9648 8ZM47.6348 11.8516C49.0132 11.8516 50.0163 12.1744 50.6084 12.8037C51.2004 13.433 51.5029 14.5429 51.5029 16.1016V23.0146H49.0986V15.8711C49.1167 15.6059 49.0819 15.3397 48.9961 15.0879C48.9104 14.8364 48.7759 14.604 48.5996 14.4043C48.4081 14.2267 48.1814 14.09 47.9346 14.0029C47.6875 13.9159 47.4246 13.8794 47.1631 13.8975C46.796 13.876 46.4281 13.9304 46.083 14.0566C45.738 14.1829 45.4226 14.379 45.1572 14.6318C44.6533 15.1965 44.3959 15.9371 44.4414 16.6904V23.0146H42.0371V12.1201H44.3613V13.4707C44.7182 12.982 45.1854 12.5824 45.7246 12.3037C46.3147 12.0011 46.9706 11.8458 47.6348 11.8516ZM18.8076 13.834C18.3978 13.834 17.9925 13.9203 17.6182 14.0859C17.2439 14.2516 16.9088 14.4933 16.6348 14.7959C16.1254 15.4378 15.8673 16.3832 15.8672 17.5752C15.8672 18.7674 16.1259 19.7162 16.6289 20.3486C16.8918 20.6666 17.226 20.9191 17.6055 21.084C17.985 21.2489 18.3989 21.322 18.8125 21.2979C19.2237 21.3215 19.6348 21.2479 20.0117 21.083C20.3886 20.9181 20.7205 20.666 20.9805 20.3486C21.4802 19.713 21.7354 18.7736 21.7354 17.5752C21.7353 16.3769 21.4802 15.4283 20.9805 14.7959C20.7064 14.4933 20.3713 14.2516 19.9971 14.0859C19.6227 13.9203 19.2174 13.834 18.8076 13.834ZM35.6924 13.8252C35.3588 13.8085 35.0254 13.8616 34.7139 13.9814C34.4023 14.1013 34.1191 14.2849 33.8838 14.5205C33.4147 15.0717 33.1453 15.7632 33.1172 16.4844H38.2334C38.2623 15.7698 38.0228 15.0697 37.5615 14.5205C37.3174 14.2797 37.0243 14.0936 36.7021 13.9736C36.38 13.8537 36.0357 13.8031 35.6924 13.8252ZM68.3662 13.8252C68.0327 13.8085 67.6991 13.8616 67.3877 13.9814C67.0763 14.1013 66.7938 14.285 66.5586 14.5205C66.0882 15.0709 65.8176 15.7629 65.791 16.4844H70.9043C70.9359 15.7699 70.6971 15.0692 70.2354 14.5205C69.9913 14.2798 69.698 14.0935 69.376 13.9736C69.0539 13.8538 68.7094 13.8031 68.3662 13.8252Z" fill="#151C17"/>
</svg>
