<svg width="17" height="26" viewBox="0 0 17 26" fill="none" xmlns="http://www.w3.org/2000/svg">
<path d="M7.21362 16.4102C6.20755 17.0469 5.23889 17.739 4.31225 18.4832C3.33164 19.2788 2.08208 20.4206 1.36328 21.0898C2.27487 21.3238 4.05996 21.8292 6.05688 22.5428C8.16329 23.2939 10.1388 24.1503 11.0551 24.555C11.4217 23.7151 12.1881 21.9813 12.9259 20.5048C13.6637 19.0284 14.3373 17.8515 14.6848 17.2619C13.8042 17.0793 12.2476 16.7611 11.0147 16.6114C9.7523 16.4766 8.48341 16.4094 7.21362 16.4102Z" fill="#5FA526"/>
<path d="M2.38012 0L0 21.8585L0.476024 21.9685C0.499825 21.9685 2.89423 22.5511 5.69801 23.5502C8.50179 24.5493 11.0676 25.7379 11.0937 25.759L11.6079 25.993L11.8292 25.4735C11.8292 25.4501 12.8955 22.9746 13.8928 20.9717C14.89 18.9689 15.8349 17.4269 15.8445 17.4129L16.0396 17.0947L2.38012 0ZM3.18222 2.73524L14.2807 16.6314C13.3834 16.4465 12.122 16.2079 11.0866 16.0815C9.77602 15.9419 8.45862 15.8731 7.14036 15.8756H7.0642L6.99994 15.9154C5.94975 16.5735 4.93965 17.2915 3.9748 18.0657C3.08702 18.7864 1.99692 19.7761 1.2567 20.4617L3.18222 2.73524ZM12.9264 20.5178C12.1767 21.9942 11.4103 23.7163 11.0438 24.568C10.1393 24.1632 8.16382 23.3069 6.05741 22.5558C4.06049 21.8539 2.2754 21.3438 1.36381 21.1028C2.08261 20.4219 3.33217 19.2801 4.31278 18.4845C5.23953 17.7419 6.2082 17.0514 7.21415 16.4161C8.48632 16.4152 9.7576 16.4823 11.0223 16.6173C12.2552 16.7671 13.819 17.0853 14.6806 17.2678C14.3259 17.8528 13.6405 19.0484 12.9145 20.5061L12.9264 20.5178Z" fill="#151C17"/>
</svg>
